<mxfile host="app.diagrams.net" modified="2022-11-02T07:06:00.755Z" agent="5.0 (X11; Linux x86_64) AppleWebKit/537.36 (KHTML, like Gecko) Chrome/106.0.0.0 Safari/537.36" etag="TKc4lKu0IQJ5u90qTDP-" version="20.5.1" type="github">
  <diagram id="WK_fW_r-eW_HzLFUV2SB" name="第 1 页">
    <mxGraphModel dx="1185" dy="623" grid="1" gridSize="10" guides="1" tooltips="1" connect="1" arrows="1" fold="1" page="1" pageScale="1" pageWidth="827" pageHeight="1169" math="0" shadow="0">
      <root>
        <mxCell id="0" />
        <mxCell id="1" parent="0" />
        <mxCell id="tSSUpNLXEQ4ZfmdRGb6b-1" style="edgeStyle=orthogonalEdgeStyle;rounded=0;orthogonalLoop=1;jettySize=auto;html=1;exitX=1;exitY=0.5;exitDx=0;exitDy=0;" edge="1" parent="1" source="tSSUpNLXEQ4ZfmdRGb6b-2" target="tSSUpNLXEQ4ZfmdRGb6b-4">
          <mxGeometry relative="1" as="geometry" />
        </mxCell>
        <mxCell id="tSSUpNLXEQ4ZfmdRGb6b-2" value="用户首次登录" style="rounded=0;whiteSpace=wrap;html=1;" vertex="1" parent="1">
          <mxGeometry x="224" y="120" width="120" height="60" as="geometry" />
        </mxCell>
        <mxCell id="tSSUpNLXEQ4ZfmdRGb6b-22" style="edgeStyle=orthogonalEdgeStyle;rounded=0;orthogonalLoop=1;jettySize=auto;html=1;entryX=0.5;entryY=0;entryDx=0;entryDy=0;" edge="1" parent="1" source="tSSUpNLXEQ4ZfmdRGb6b-4" target="tSSUpNLXEQ4ZfmdRGb6b-9">
          <mxGeometry relative="1" as="geometry" />
        </mxCell>
        <mxCell id="tSSUpNLXEQ4ZfmdRGb6b-4" value="接收到请求" style="rounded=0;whiteSpace=wrap;html=1;" vertex="1" parent="1">
          <mxGeometry x="484" y="120" width="120" height="60" as="geometry" />
        </mxCell>
        <mxCell id="tSSUpNLXEQ4ZfmdRGb6b-7" style="edgeStyle=orthogonalEdgeStyle;rounded=0;orthogonalLoop=1;jettySize=auto;html=1;exitX=0.5;exitY=1;exitDx=0;exitDy=0;entryX=1;entryY=0.5;entryDx=0;entryDy=0;" edge="1" parent="1" source="tSSUpNLXEQ4ZfmdRGb6b-9" target="tSSUpNLXEQ4ZfmdRGb6b-15">
          <mxGeometry relative="1" as="geometry" />
        </mxCell>
        <mxCell id="tSSUpNLXEQ4ZfmdRGb6b-8" value="N" style="edgeLabel;html=1;align=center;verticalAlign=middle;resizable=0;points=[];" vertex="1" connectable="0" parent="tSSUpNLXEQ4ZfmdRGb6b-7">
          <mxGeometry x="-0.5793" y="-1" relative="1" as="geometry">
            <mxPoint as="offset" />
          </mxGeometry>
        </mxCell>
        <mxCell id="tSSUpNLXEQ4ZfmdRGb6b-24" style="edgeStyle=orthogonalEdgeStyle;rounded=0;orthogonalLoop=1;jettySize=auto;html=1;exitX=0;exitY=0.5;exitDx=0;exitDy=0;" edge="1" parent="1" source="tSSUpNLXEQ4ZfmdRGb6b-9" target="tSSUpNLXEQ4ZfmdRGb6b-13">
          <mxGeometry relative="1" as="geometry" />
        </mxCell>
        <mxCell id="tSSUpNLXEQ4ZfmdRGb6b-9" value="首次登陆？" style="rhombus;whiteSpace=wrap;html=1;" vertex="1" parent="1">
          <mxGeometry x="487" y="230" width="114" height="50" as="geometry" />
        </mxCell>
        <mxCell id="tSSUpNLXEQ4ZfmdRGb6b-23" style="edgeStyle=orthogonalEdgeStyle;rounded=0;orthogonalLoop=1;jettySize=auto;html=1;exitX=0.5;exitY=1;exitDx=0;exitDy=0;entryX=0.5;entryY=0;entryDx=0;entryDy=0;" edge="1" parent="1" source="tSSUpNLXEQ4ZfmdRGb6b-13" target="tSSUpNLXEQ4ZfmdRGb6b-15">
          <mxGeometry relative="1" as="geometry" />
        </mxCell>
        <mxCell id="tSSUpNLXEQ4ZfmdRGb6b-13" value="弹出修改用户密码窗口" style="rounded=0;whiteSpace=wrap;html=1;" vertex="1" parent="1">
          <mxGeometry x="224" y="225" width="120" height="60" as="geometry" />
        </mxCell>
        <mxCell id="tSSUpNLXEQ4ZfmdRGb6b-14" style="edgeStyle=orthogonalEdgeStyle;rounded=0;orthogonalLoop=1;jettySize=auto;html=1;exitX=0.5;exitY=1;exitDx=0;exitDy=0;" edge="1" parent="1" source="tSSUpNLXEQ4ZfmdRGb6b-15" target="tSSUpNLXEQ4ZfmdRGb6b-16">
          <mxGeometry relative="1" as="geometry" />
        </mxCell>
        <mxCell id="tSSUpNLXEQ4ZfmdRGb6b-15" value="跳转到首页" style="rounded=0;whiteSpace=wrap;html=1;" vertex="1" parent="1">
          <mxGeometry x="224" y="350" width="120" height="60" as="geometry" />
        </mxCell>
        <mxCell id="tSSUpNLXEQ4ZfmdRGb6b-16" value="结束" style="rounded=1;whiteSpace=wrap;html=1;" vertex="1" parent="1">
          <mxGeometry x="224" y="450" width="120" height="60" as="geometry" />
        </mxCell>
        <mxCell id="tSSUpNLXEQ4ZfmdRGb6b-17" value="" style="endArrow=none;dashed=1;html=1;dashPattern=1 3;strokeWidth=2;rounded=0;" edge="1" parent="1">
          <mxGeometry width="50" height="50" relative="1" as="geometry">
            <mxPoint x="414" y="510" as="sourcePoint" />
            <mxPoint x="414" y="70" as="targetPoint" />
          </mxGeometry>
        </mxCell>
        <mxCell id="tSSUpNLXEQ4ZfmdRGb6b-18" value="前端" style="text;html=1;align=center;verticalAlign=middle;resizable=0;points=[];autosize=1;strokeColor=none;fillColor=none;" vertex="1" parent="1">
          <mxGeometry x="259" y="80" width="50" height="30" as="geometry" />
        </mxCell>
        <mxCell id="tSSUpNLXEQ4ZfmdRGb6b-19" value="后端" style="text;html=1;align=center;verticalAlign=middle;resizable=0;points=[];autosize=1;strokeColor=none;fillColor=none;" vertex="1" parent="1">
          <mxGeometry x="519" y="80" width="50" height="30" as="geometry" />
        </mxCell>
      </root>
    </mxGraphModel>
  </diagram>
</mxfile>
